<svg width="866" height="683" viewBox="0 0 866 683" fill="none" xmlns="http://www.w3.org/2000/svg">
<path d="M55.7598 102.761V463.421H326.55V106.151" stroke="#3774A9" stroke-linecap="round" stroke-linejoin="round"/>
<path d="M43.9199 28.5303V96.7303C43.9199 96.7303 74.2599 122.17 130.14 100.08C130.14 100.08 179.8 127.13 247.91 104.06C247.91 104.06 303.52 124.75 341.27 97.8703V28.5303C341.27 28.5303 44.9199 29.5303 43.9199 28.5303Z" stroke="#3774A9" stroke-linecap="round" stroke-linejoin="round"/>
<path d="M43.9199 75.0498C43.9199 75.0498 69.2599 102.17 130.14 79.0898C130.14 79.0898 183.83 105.01 247.93 82.0098C247.93 82.0098 294.53 107.32 340.28 76.6698" stroke="#3774A9" stroke-linecap="round" stroke-linejoin="round"/>
<path d="M43.9199 84.0498C43.9199 84.0498 69.2599 111.17 130.14 88.0898C130.14 88.0898 183.83 114.01 247.93 91.0098C247.93 91.0098 294.53 116.32 340.28 85.6698" stroke="#3774A9" stroke-linecap="round" stroke-linejoin="round"/>
<path d="M80.6299 109.141V426.811" stroke="#3774A9" stroke-linecap="round" stroke-linejoin="round"/>
<path d="M154.63 110.141V426.811" stroke="#3774A9" stroke-linecap="round" stroke-linejoin="round"/>
<path d="M301.63 112.141V425.811" stroke="#3774A9" stroke-linecap="round" stroke-linejoin="round"/>
<path d="M231.63 109.141V426.811" stroke="#3774A9" stroke-linecap="round" stroke-linejoin="round"/>
<path d="M81.1299 130.101H301.43" stroke="#3774A9" stroke-linecap="round" stroke-linejoin="round"/>
<path d="M81.1299 223.101H301.43" stroke="#3774A9" stroke-linecap="round" stroke-linejoin="round"/>
<path d="M81.1299 328.101H301.43" stroke="#3774A9" stroke-linecap="round" stroke-linejoin="round"/>
<path d="M55.7598 463.42L81.0198 426.99H302.02L326.55 463.42" stroke="#3774A9" stroke-linecap="round" stroke-linejoin="round"/>
<path d="M805.05 146.86H515.63C506.357 146.86 498.84 154.377 498.84 163.65V358.07C498.84 367.343 506.357 374.86 515.63 374.86H805.05C814.323 374.86 821.84 367.343 821.84 358.07V163.65C821.84 154.377 814.323 146.86 805.05 146.86Z" fill="white" stroke="#002346" stroke-miterlimit="10"/>
<path d="M821.84 163.65V194.86H498.84V163.65C498.84 154.38 506.36 146.86 515.63 146.86H805.05C814.32 146.86 821.84 154.38 821.84 163.65Z" fill="#3774A9" stroke="#002346" stroke-miterlimit="10"/>
<path d="M758.34 177.36C761.93 177.36 764.84 174.45 764.84 170.86C764.84 167.271 761.93 164.36 758.34 164.36C754.75 164.36 751.84 167.271 751.84 170.86C751.84 174.45 754.75 177.36 758.34 177.36Z" fill="white" stroke="#002346" stroke-miterlimit="10"/>
<path d="M778.34 177.36C781.93 177.36 784.84 174.45 784.84 170.86C784.84 167.271 781.93 164.36 778.34 164.36C774.75 164.36 771.84 167.271 771.84 170.86C771.84 174.45 774.75 177.36 778.34 177.36Z" fill="white" stroke="#002346" stroke-miterlimit="10"/>
<path d="M798.34 177.36C801.93 177.36 804.84 174.45 804.84 170.86C804.84 167.271 801.93 164.36 798.34 164.36C794.75 164.36 791.84 167.271 791.84 170.86C791.84 174.45 794.75 177.36 798.34 177.36Z" fill="white" stroke="#002346" stroke-miterlimit="10"/>
<path d="M589.84 279.86C589.84 287.75 587.22 295.05 582.81 300.9C576.42 309.38 566.27 314.86 554.84 314.86C543.41 314.86 533.26 309.38 526.87 300.9C522.46 295.05 519.84 287.75 519.84 279.86C519.84 260.53 535.51 244.86 554.84 244.86C574.17 244.86 589.84 260.53 589.84 279.86Z" fill="white" stroke="#002346" stroke-miterlimit="10"/>
<path d="M582.81 300.9C576.42 309.38 566.27 314.86 554.84 314.86C543.41 314.86 533.26 309.38 526.87 300.9C527.36 285.88 539.7 273.86 554.84 273.86C569.98 273.86 582.32 285.88 582.81 300.9Z" fill="#C2E0F2" stroke="#002346" stroke-miterlimit="10"/>
<path d="M555.34 279.86C562.796 279.86 568.84 273.816 568.84 266.36C568.84 258.904 562.796 252.86 555.34 252.86C547.884 252.86 541.84 258.904 541.84 266.36C541.84 273.816 547.884 279.86 555.34 279.86Z" fill="#C2E0F2" stroke="#002346" stroke-miterlimit="10"/>
<path d="M782.34 223.86H622.34C617.093 223.86 612.84 228.114 612.84 233.36C612.84 238.607 617.093 242.86 622.34 242.86H782.34C787.587 242.86 791.84 238.607 791.84 233.36C791.84 228.114 787.587 223.86 782.34 223.86Z" fill="#E6E7E8" stroke="#002346" stroke-miterlimit="10"/>
<path d="M782.34 252.86H622.34C617.093 252.86 612.84 257.114 612.84 262.36C612.84 267.607 617.093 271.86 622.34 271.86H782.34C787.587 271.86 791.84 267.607 791.84 262.36C791.84 257.114 787.587 252.86 782.34 252.86Z" fill="#E6E7E8" stroke="#002346" stroke-miterlimit="10"/>
<path d="M782.34 284.86H622.34C617.093 284.86 612.84 289.114 612.84 294.36C612.84 299.607 617.093 303.86 622.34 303.86H782.34C787.587 303.86 791.84 299.607 791.84 294.36C791.84 289.114 787.587 284.86 782.34 284.86Z" fill="#E6E7E8" stroke="#002346" stroke-miterlimit="10"/>
<path d="M782.34 316.86H622.34C617.093 316.86 612.84 321.114 612.84 326.36C612.84 331.607 617.093 335.86 622.34 335.86H782.34C787.587 335.86 791.84 331.607 791.84 326.36C791.84 321.114 787.587 316.86 782.34 316.86Z" fill="#C2E0F2" stroke="#002346" stroke-miterlimit="10"/>
<path d="M631.344 229.474C631.344 229.554 631.304 229.594 631.224 229.594H626.808C626.776 229.594 626.76 229.61 626.76 229.642V232.606C626.76 232.638 626.776 232.654 626.808 232.654H629.904C629.984 232.654 630.024 232.694 630.024 232.774V233.278C630.024 233.358 629.984 233.398 629.904 233.398H626.808C626.776 233.398 626.76 233.414 626.76 233.446V236.458C626.76 236.49 626.776 236.506 626.808 236.506H631.224C631.304 236.506 631.344 236.546 631.344 236.626V237.13C631.344 237.21 631.304 237.25 631.224 237.25H626.028C625.948 237.25 625.908 237.21 625.908 237.13V228.97C625.908 228.89 625.948 228.85 626.028 228.85H631.224C631.304 228.85 631.344 228.89 631.344 228.97V229.474ZM639.15 231.094C639.75 231.094 640.222 231.274 640.566 231.634C640.918 231.994 641.094 232.486 641.094 233.11V237.13C641.094 237.21 641.054 237.25 640.974 237.25H640.374C640.294 237.25 640.254 237.21 640.254 237.13V233.278C640.254 232.838 640.126 232.49 639.87 232.234C639.622 231.97 639.294 231.838 638.886 231.838C638.462 231.838 638.118 231.966 637.854 232.222C637.598 232.478 637.47 232.822 637.47 233.254V237.13C637.47 237.21 637.43 237.25 637.35 237.25H636.738C636.658 237.25 636.618 237.21 636.618 237.13V233.278C636.618 232.838 636.494 232.49 636.246 232.234C635.998 231.97 635.666 231.838 635.25 231.838C634.826 231.838 634.486 231.966 634.23 232.222C633.982 232.478 633.858 232.822 633.858 233.254V237.13C633.858 237.21 633.818 237.25 633.738 237.25H633.126C633.046 237.25 633.006 237.21 633.006 237.13V231.298C633.006 231.218 633.046 231.178 633.126 231.178H633.738C633.818 231.178 633.858 231.218 633.858 231.298V231.778C633.858 231.794 633.862 231.806 633.87 231.814C633.886 231.814 633.902 231.806 633.918 231.79C634.094 231.558 634.318 231.386 634.59 231.274C634.87 231.154 635.178 231.094 635.514 231.094C635.93 231.094 636.286 231.178 636.582 231.346C636.878 231.514 637.102 231.758 637.254 232.078C637.27 232.118 637.29 232.118 637.314 232.078C637.49 231.75 637.738 231.506 638.058 231.346C638.378 231.178 638.742 231.094 639.15 231.094ZM645.031 231.082C645.751 231.082 646.307 231.266 646.699 231.634C647.091 232.002 647.287 232.49 647.287 233.098V237.13C647.287 237.21 647.247 237.25 647.167 237.25H646.555C646.475 237.25 646.435 237.21 646.435 237.13V236.638C646.435 236.622 646.427 236.61 646.411 236.602C646.403 236.594 646.391 236.598 646.375 236.614C646.175 236.854 645.915 237.038 645.595 237.166C645.275 237.286 644.919 237.346 644.527 237.346C643.959 237.346 643.483 237.202 643.099 236.914C642.715 236.626 642.523 236.186 642.523 235.594C642.523 234.994 642.739 234.522 643.171 234.178C643.611 233.826 644.219 233.65 644.995 233.65H646.387C646.419 233.65 646.435 233.634 646.435 233.602V233.146C646.435 232.738 646.319 232.418 646.087 232.186C645.863 231.946 645.511 231.826 645.031 231.826C644.647 231.826 644.335 231.902 644.095 232.054C643.855 232.198 643.707 232.402 643.651 232.666C643.627 232.746 643.579 232.782 643.507 232.774L642.859 232.69C642.771 232.674 642.735 232.642 642.751 232.594C642.815 232.146 643.055 231.782 643.471 231.502C643.887 231.222 644.407 231.082 645.031 231.082ZM644.695 236.614C645.167 236.614 645.575 236.498 645.919 236.266C646.263 236.026 646.435 235.706 646.435 235.306V234.37C646.435 234.338 646.419 234.322 646.387 234.322H645.127C644.599 234.322 644.175 234.43 643.855 234.646C643.535 234.862 643.375 235.162 643.375 235.546C643.375 235.898 643.495 236.166 643.735 236.35C643.983 236.526 644.303 236.614 644.695 236.614ZM649.636 230.074C649.444 230.074 649.284 230.01 649.156 229.882C649.028 229.754 648.964 229.594 648.964 229.402C648.964 229.202 649.028 229.042 649.156 228.922C649.284 228.794 649.444 228.73 649.636 228.73C649.828 228.73 649.988 228.794 650.116 228.922C650.244 229.042 650.308 229.202 650.308 229.402C650.308 229.594 650.244 229.754 650.116 229.882C649.988 230.01 649.828 230.074 649.636 230.074ZM649.3 237.238C649.22 237.238 649.18 237.198 649.18 237.118V231.286C649.18 231.206 649.22 231.166 649.3 231.166H649.912C649.992 231.166 650.032 231.206 650.032 231.286V237.118C650.032 237.198 649.992 237.238 649.912 237.238H649.3ZM652.239 237.25C652.159 237.25 652.119 237.21 652.119 237.13V228.97C652.119 228.89 652.159 228.85 652.239 228.85H652.851C652.931 228.85 652.971 228.89 652.971 228.97V237.13C652.971 237.21 652.931 237.25 652.851 237.25H652.239Z" fill="#002346"/>
<path d="M629.464 266.358C628.904 266.358 628.412 266.25 627.988 266.034C627.564 265.81 627.232 265.498 626.992 265.098C626.76 264.69 626.644 264.222 626.644 263.694V260.394C626.644 259.874 626.76 259.414 626.992 259.014C627.232 258.614 627.564 258.306 627.988 258.09C628.412 257.866 628.904 257.754 629.464 257.754C630.024 257.754 630.516 257.862 630.94 258.078C631.364 258.294 631.692 258.598 631.924 258.99C632.164 259.382 632.284 259.834 632.284 260.346C632.284 260.386 632.272 260.418 632.248 260.442C632.224 260.466 632.196 260.478 632.164 260.478L631.552 260.514C631.472 260.514 631.432 260.478 631.432 260.406V260.37C631.432 259.802 631.252 259.35 630.892 259.014C630.532 258.67 630.056 258.498 629.464 258.498C628.872 258.498 628.396 258.67 628.036 259.014C627.676 259.358 627.496 259.81 627.496 260.37V263.73C627.496 264.29 627.676 264.742 628.036 265.086C628.396 265.43 628.872 265.602 629.464 265.602C630.056 265.602 630.532 265.434 630.892 265.098C631.252 264.754 631.432 264.298 631.432 263.73V263.706C631.432 263.634 631.472 263.598 631.552 263.598L632.164 263.634C632.244 263.634 632.284 263.67 632.284 263.742C632.284 264.262 632.164 264.722 631.924 265.122C631.692 265.514 631.364 265.818 630.94 266.034C630.516 266.25 630.024 266.358 629.464 266.358ZM636.477 260.118C636.741 260.118 636.969 260.17 637.161 260.274C637.225 260.306 637.249 260.358 637.233 260.43L637.101 261.018C637.077 261.098 637.025 261.122 636.945 261.09C636.809 261.034 636.653 261.006 636.477 261.006L636.321 261.018C635.905 261.034 635.561 261.19 635.289 261.486C635.017 261.774 634.881 262.142 634.881 262.59V266.13C634.881 266.21 634.841 266.25 634.761 266.25H634.149C634.069 266.25 634.029 266.21 634.029 266.13V260.298C634.029 260.218 634.069 260.178 634.149 260.178H634.761C634.841 260.178 634.881 260.218 634.881 260.298V261.03C634.881 261.054 634.885 261.07 634.893 261.078C634.909 261.078 634.921 261.07 634.929 261.054C635.097 260.758 635.309 260.53 635.565 260.37C635.829 260.202 636.133 260.118 636.477 260.118ZM642.998 262.194C643.03 262.418 643.046 262.698 643.046 263.034V263.418C643.046 263.498 643.006 263.538 642.926 263.538H639.05C639.018 263.538 639.002 263.554 639.002 263.586C639.018 264.026 639.042 264.31 639.074 264.438C639.162 264.798 639.35 265.082 639.638 265.29C639.926 265.498 640.294 265.602 640.742 265.602C641.078 265.602 641.374 265.526 641.63 265.374C641.886 265.222 642.086 265.006 642.23 264.726C642.278 264.654 642.334 264.638 642.398 264.678L642.866 264.954C642.93 264.994 642.946 265.05 642.914 265.122C642.714 265.506 642.414 265.81 642.014 266.034C641.614 266.25 641.154 266.358 640.634 266.358C640.066 266.35 639.59 266.214 639.206 265.95C638.822 265.686 638.546 265.318 638.378 264.846C638.234 264.462 638.162 263.91 638.162 263.19C638.162 262.854 638.166 262.582 638.174 262.374C638.19 262.158 638.222 261.966 638.27 261.798C638.406 261.278 638.678 260.862 639.086 260.55C639.502 260.238 640.002 260.082 640.586 260.082C641.314 260.082 641.874 260.266 642.266 260.634C642.658 261.002 642.902 261.522 642.998 262.194ZM640.586 260.826C640.194 260.826 639.866 260.93 639.602 261.138C639.346 261.338 639.178 261.61 639.098 261.954C639.05 262.122 639.018 262.394 639.002 262.77C639.002 262.802 639.018 262.818 639.05 262.818H642.158C642.19 262.818 642.206 262.802 642.206 262.77C642.19 262.41 642.166 262.154 642.134 262.002C642.046 261.642 641.866 261.358 641.594 261.15C641.33 260.934 640.994 260.826 640.586 260.826ZM646.781 260.082C647.501 260.082 648.057 260.266 648.449 260.634C648.841 261.002 649.037 261.49 649.037 262.098V266.13C649.037 266.21 648.997 266.25 648.917 266.25H648.305C648.225 266.25 648.185 266.21 648.185 266.13V265.638C648.185 265.622 648.177 265.61 648.161 265.602C648.153 265.594 648.141 265.598 648.125 265.614C647.925 265.854 647.665 266.038 647.345 266.166C647.025 266.286 646.669 266.346 646.277 266.346C645.709 266.346 645.233 266.202 644.849 265.914C644.465 265.626 644.273 265.186 644.273 264.594C644.273 263.994 644.489 263.522 644.921 263.178C645.361 262.826 645.969 262.65 646.745 262.65H648.137C648.169 262.65 648.185 262.634 648.185 262.602V262.146C648.185 261.738 648.069 261.418 647.837 261.186C647.613 260.946 647.261 260.826 646.781 260.826C646.397 260.826 646.085 260.902 645.845 261.054C645.605 261.198 645.457 261.402 645.401 261.666C645.377 261.746 645.329 261.782 645.257 261.774L644.609 261.69C644.521 261.674 644.485 261.642 644.501 261.594C644.565 261.146 644.805 260.782 645.221 260.502C645.637 260.222 646.157 260.082 646.781 260.082ZM646.445 265.614C646.917 265.614 647.325 265.498 647.669 265.266C648.013 265.026 648.185 264.706 648.185 264.306V263.37C648.185 263.338 648.169 263.322 648.137 263.322H646.877C646.349 263.322 645.925 263.43 645.605 263.646C645.285 263.862 645.125 264.162 645.125 264.546C645.125 264.898 645.245 265.166 645.485 265.35C645.733 265.526 646.053 265.614 646.445 265.614ZM653.487 260.766C653.487 260.846 653.447 260.886 653.367 260.886H652.011C651.979 260.886 651.963 260.902 651.963 260.934V264.474C651.963 264.858 652.047 265.13 652.215 265.29C652.391 265.442 652.663 265.518 653.031 265.518H653.331C653.411 265.518 653.451 265.558 653.451 265.638V266.13C653.451 266.21 653.411 266.25 653.331 266.25C653.235 266.258 653.087 266.262 652.887 266.262C652.311 266.262 651.875 266.154 651.579 265.938C651.283 265.722 651.135 265.322 651.135 264.738V260.934C651.135 260.902 651.119 260.886 651.087 260.886H650.355C650.275 260.886 650.235 260.846 650.235 260.766V260.298C650.235 260.218 650.275 260.178 650.355 260.178H651.087C651.119 260.178 651.135 260.162 651.135 260.13V258.738C651.135 258.658 651.175 258.618 651.255 258.618H651.843C651.923 258.618 651.963 258.658 651.963 258.738V260.13C651.963 260.162 651.979 260.178 652.011 260.178H653.367C653.447 260.178 653.487 260.218 653.487 260.298V260.766ZM659.615 262.194C659.647 262.418 659.663 262.698 659.663 263.034V263.418C659.663 263.498 659.623 263.538 659.543 263.538H655.667C655.635 263.538 655.619 263.554 655.619 263.586C655.635 264.026 655.659 264.31 655.691 264.438C655.779 264.798 655.967 265.082 656.255 265.29C656.543 265.498 656.911 265.602 657.359 265.602C657.695 265.602 657.991 265.526 658.247 265.374C658.503 265.222 658.703 265.006 658.847 264.726C658.895 264.654 658.951 264.638 659.015 264.678L659.483 264.954C659.547 264.994 659.563 265.05 659.531 265.122C659.331 265.506 659.031 265.81 658.631 266.034C658.231 266.25 657.771 266.358 657.251 266.358C656.683 266.35 656.207 266.214 655.823 265.95C655.439 265.686 655.163 265.318 654.995 264.846C654.851 264.462 654.779 263.91 654.779 263.19C654.779 262.854 654.783 262.582 654.791 262.374C654.807 262.158 654.839 261.966 654.887 261.798C655.023 261.278 655.295 260.862 655.703 260.55C656.119 260.238 656.619 260.082 657.203 260.082C657.931 260.082 658.491 260.266 658.883 260.634C659.275 261.002 659.519 261.522 659.615 262.194ZM657.203 260.826C656.811 260.826 656.483 260.93 656.219 261.138C655.963 261.338 655.795 261.61 655.715 261.954C655.667 262.122 655.635 262.394 655.619 262.77C655.619 262.802 655.635 262.818 655.667 262.818H658.775C658.807 262.818 658.823 262.802 658.823 262.77C658.807 262.41 658.783 262.154 658.751 262.002C658.663 261.642 658.483 261.358 658.211 261.15C657.947 260.934 657.611 260.826 657.203 260.826ZM667.12 257.838C667.824 257.838 668.388 258.054 668.812 258.486C669.244 258.918 669.46 259.486 669.46 260.19C669.46 260.886 669.24 261.446 668.8 261.87C668.368 262.294 667.796 262.506 667.084 262.506H664.744C664.712 262.506 664.696 262.522 664.696 262.554V266.13C664.696 266.21 664.656 266.25 664.576 266.25H663.964C663.884 266.25 663.844 266.21 663.844 266.13V257.958C663.844 257.878 663.884 257.838 663.964 257.838H667.12ZM667.024 261.798C667.496 261.798 667.88 261.654 668.176 261.366C668.472 261.07 668.62 260.682 668.62 260.202C668.62 259.714 668.472 259.322 668.176 259.026C667.88 258.73 667.496 258.582 667.024 258.582H664.744C664.712 258.582 664.696 258.598 664.696 258.63V261.75C664.696 261.782 664.712 261.798 664.744 261.798H667.024ZM672.926 260.082C673.646 260.082 674.202 260.266 674.594 260.634C674.986 261.002 675.182 261.49 675.182 262.098V266.13C675.182 266.21 675.142 266.25 675.062 266.25H674.45C674.37 266.25 674.33 266.21 674.33 266.13V265.638C674.33 265.622 674.322 265.61 674.306 265.602C674.298 265.594 674.286 265.598 674.27 265.614C674.07 265.854 673.81 266.038 673.49 266.166C673.17 266.286 672.814 266.346 672.422 266.346C671.854 266.346 671.378 266.202 670.994 265.914C670.61 265.626 670.418 265.186 670.418 264.594C670.418 263.994 670.634 263.522 671.066 263.178C671.506 262.826 672.114 262.65 672.89 262.65H674.282C674.314 262.65 674.33 262.634 674.33 262.602V262.146C674.33 261.738 674.214 261.418 673.982 261.186C673.758 260.946 673.406 260.826 672.926 260.826C672.542 260.826 672.23 260.902 671.99 261.054C671.75 261.198 671.602 261.402 671.546 261.666C671.522 261.746 671.474 261.782 671.402 261.774L670.754 261.69C670.666 261.674 670.63 261.642 670.646 261.594C670.71 261.146 670.95 260.782 671.366 260.502C671.782 260.222 672.302 260.082 672.926 260.082ZM672.59 265.614C673.062 265.614 673.47 265.498 673.814 265.266C674.158 265.026 674.33 264.706 674.33 264.306V263.37C674.33 263.338 674.314 263.322 674.282 263.322H673.022C672.494 263.322 672.07 263.43 671.75 263.646C671.43 263.862 671.27 264.162 671.27 264.546C671.27 264.898 671.39 265.166 671.63 265.35C671.878 265.526 672.198 265.614 672.59 265.614ZM678.947 266.31C678.499 266.31 678.099 266.238 677.747 266.094C677.403 265.95 677.135 265.758 676.943 265.518C676.759 265.278 676.667 265.01 676.667 264.714V264.57C676.667 264.49 676.707 264.45 676.787 264.45H677.363C677.443 264.45 677.483 264.49 677.483 264.57V264.666C677.483 264.93 677.619 265.162 677.891 265.362C678.171 265.554 678.519 265.65 678.935 265.65C679.351 265.65 679.687 265.558 679.943 265.374C680.199 265.182 680.327 264.942 680.327 264.654C680.327 264.454 680.259 264.29 680.123 264.162C679.995 264.034 679.839 263.934 679.655 263.862C679.479 263.79 679.203 263.698 678.827 263.586C678.379 263.458 678.011 263.33 677.723 263.202C677.435 263.074 677.191 262.898 676.991 262.674C676.799 262.442 676.703 262.15 676.703 261.798C676.703 261.286 676.903 260.878 677.303 260.574C677.703 260.27 678.231 260.118 678.887 260.118C679.327 260.118 679.715 260.19 680.051 260.334C680.395 260.478 680.659 260.678 680.843 260.934C681.027 261.182 681.119 261.462 681.119 261.774V261.81C681.119 261.89 681.079 261.93 680.999 261.93H680.435C680.355 261.93 680.315 261.89 680.315 261.81V261.774C680.315 261.502 680.183 261.274 679.919 261.09C679.663 260.906 679.315 260.814 678.875 260.814C678.467 260.814 678.139 260.898 677.891 261.066C677.643 261.226 677.519 261.45 677.519 261.738C677.519 262.01 677.639 262.218 677.879 262.362C678.119 262.506 678.491 262.65 678.995 262.794C679.459 262.93 679.835 263.058 680.123 263.178C680.411 263.298 680.659 263.474 680.867 263.706C681.075 263.93 681.179 264.226 681.179 264.594C681.179 265.114 680.975 265.53 680.567 265.842C680.159 266.154 679.619 266.31 678.947 266.31ZM684.548 266.31C684.1 266.31 683.7 266.238 683.348 266.094C683.004 265.95 682.736 265.758 682.544 265.518C682.36 265.278 682.268 265.01 682.268 264.714V264.57C682.268 264.49 682.308 264.45 682.388 264.45H682.964C683.044 264.45 683.084 264.49 683.084 264.57V264.666C683.084 264.93 683.22 265.162 683.492 265.362C683.772 265.554 684.12 265.65 684.536 265.65C684.952 265.65 685.288 265.558 685.544 265.374C685.8 265.182 685.928 264.942 685.928 264.654C685.928 264.454 685.86 264.29 685.724 264.162C685.596 264.034 685.44 263.934 685.256 263.862C685.08 263.79 684.804 263.698 684.428 263.586C683.98 263.458 683.612 263.33 683.324 263.202C683.036 263.074 682.792 262.898 682.592 262.674C682.4 262.442 682.304 262.15 682.304 261.798C682.304 261.286 682.504 260.878 682.904 260.574C683.304 260.27 683.832 260.118 684.488 260.118C684.928 260.118 685.316 260.19 685.652 260.334C685.996 260.478 686.26 260.678 686.444 260.934C686.628 261.182 686.72 261.462 686.72 261.774V261.81C686.72 261.89 686.68 261.93 686.6 261.93H686.036C685.956 261.93 685.916 261.89 685.916 261.81V261.774C685.916 261.502 685.784 261.274 685.52 261.09C685.264 260.906 684.916 260.814 684.476 260.814C684.068 260.814 683.74 260.898 683.492 261.066C683.244 261.226 683.12 261.45 683.12 261.738C683.12 262.01 683.24 262.218 683.48 262.362C683.72 262.506 684.092 262.65 684.596 262.794C685.06 262.93 685.436 263.058 685.724 263.178C686.012 263.298 686.26 263.474 686.468 263.706C686.676 263.93 686.78 264.226 686.78 264.594C686.78 265.114 686.576 265.53 686.168 265.842C685.76 266.154 685.22 266.31 684.548 266.31ZM689.219 266.25C689.155 266.25 689.111 266.218 689.087 266.154L687.383 260.31L687.371 260.274C687.371 260.21 687.411 260.178 687.491 260.178H688.115C688.187 260.178 688.231 260.214 688.247 260.286L689.519 265.014C689.527 265.03 689.535 265.038 689.543 265.038C689.559 265.038 689.571 265.03 689.579 265.014L690.875 260.286C690.891 260.214 690.935 260.178 691.007 260.178H691.583C691.655 260.178 691.699 260.21 691.715 260.274L693.023 265.002C693.031 265.018 693.043 265.026 693.059 265.026C693.075 265.026 693.087 265.018 693.095 265.002L694.403 260.286C694.419 260.214 694.463 260.178 694.535 260.178L695.159 260.19C695.199 260.19 695.227 260.202 695.243 260.226C695.267 260.25 695.275 260.282 695.267 260.322L693.539 266.154C693.515 266.218 693.471 266.25 693.407 266.25H692.771C692.707 266.25 692.663 266.218 692.639 266.154L691.331 261.666C691.323 261.65 691.311 261.642 691.295 261.642C691.287 261.642 691.279 261.65 691.271 261.666L689.999 266.154C689.975 266.218 689.931 266.25 689.867 266.25H689.219ZM698.724 266.346C698.148 266.346 697.652 266.198 697.236 265.902C696.82 265.606 696.532 265.198 696.372 264.678C696.26 264.31 696.204 263.818 696.204 263.202C696.204 262.586 696.26 262.098 696.372 261.738C696.524 261.226 696.808 260.822 697.224 260.526C697.64 260.23 698.144 260.082 698.736 260.082C699.304 260.082 699.792 260.23 700.2 260.526C700.616 260.822 700.9 261.222 701.052 261.726C701.164 262.07 701.22 262.562 701.22 263.202C701.22 263.85 701.164 264.342 701.052 264.678C700.9 265.198 700.616 265.606 700.2 265.902C699.792 266.198 699.3 266.346 698.724 266.346ZM698.724 265.602C699.108 265.602 699.436 265.498 699.708 265.29C699.98 265.074 700.164 264.786 700.26 264.426C700.332 264.138 700.368 263.734 700.368 263.214C700.368 262.686 700.336 262.282 700.272 262.002C700.176 261.642 699.988 261.358 699.708 261.15C699.436 260.934 699.104 260.826 698.712 260.826C698.32 260.826 697.988 260.934 697.716 261.15C697.444 261.358 697.26 261.642 697.164 262.002C697.1 262.282 697.068 262.686 697.068 263.214C697.068 263.742 697.1 264.146 697.164 264.426C697.252 264.786 697.432 265.074 697.704 265.29C697.984 265.498 698.324 265.602 698.724 265.602ZM705.395 260.118C705.659 260.118 705.887 260.17 706.079 260.274C706.143 260.306 706.167 260.358 706.151 260.43L706.019 261.018C705.995 261.098 705.943 261.122 705.863 261.09C705.727 261.034 705.571 261.006 705.395 261.006L705.239 261.018C704.823 261.034 704.479 261.19 704.207 261.486C703.935 261.774 703.799 262.142 703.799 262.59V266.13C703.799 266.21 703.759 266.25 703.679 266.25H703.067C702.987 266.25 702.947 266.21 702.947 266.13V260.298C702.947 260.218 702.987 260.178 703.067 260.178H703.679C703.759 260.178 703.799 260.218 703.799 260.298V261.03C703.799 261.054 703.803 261.07 703.811 261.078C703.827 261.078 703.839 261.07 703.847 261.054C704.015 260.758 704.227 260.53 704.483 260.37C704.747 260.202 705.051 260.118 705.395 260.118ZM711.028 257.97C711.028 257.89 711.068 257.85 711.148 257.85H711.76C711.84 257.85 711.88 257.89 711.88 257.97V266.13C711.88 266.21 711.84 266.25 711.76 266.25H711.148C711.068 266.25 711.028 266.21 711.028 266.13V265.626C711.028 265.61 711.02 265.602 711.004 265.602C710.996 265.594 710.984 265.598 710.968 265.614C710.792 265.846 710.572 266.026 710.308 266.154C710.052 266.282 709.764 266.346 709.444 266.346C708.884 266.346 708.412 266.202 708.028 265.914C707.652 265.626 707.392 265.234 707.248 264.738C707.136 264.378 707.08 263.87 707.08 263.214C707.08 262.55 707.128 262.054 707.224 261.726C707.368 261.214 707.632 260.814 708.016 260.526C708.4 260.23 708.876 260.082 709.444 260.082C709.756 260.082 710.044 260.146 710.308 260.274C710.572 260.394 710.792 260.57 710.968 260.802C710.984 260.818 710.996 260.826 711.004 260.826C711.02 260.818 711.028 260.806 711.028 260.79V257.97ZM710.812 264.678C710.884 264.518 710.936 264.33 710.968 264.114C711 263.898 711.016 263.598 711.016 263.214C711.016 262.83 711 262.53 710.968 262.314C710.936 262.09 710.88 261.894 710.8 261.726C710.704 261.454 710.544 261.238 710.32 261.078C710.104 260.91 709.844 260.826 709.54 260.826C709.22 260.826 708.944 260.906 708.712 261.066C708.48 261.226 708.312 261.438 708.208 261.702C708.112 261.878 708.04 262.078 707.992 262.302C707.952 262.518 707.932 262.822 707.932 263.214C707.932 263.59 707.948 263.886 707.98 264.102C708.012 264.31 708.068 264.498 708.148 264.666C708.244 264.954 708.412 265.182 708.652 265.35C708.9 265.518 709.192 265.602 709.528 265.602C709.848 265.602 710.116 265.518 710.332 265.35C710.548 265.182 710.708 264.958 710.812 264.678Z" fill="#002346"/>
<path d="M629.464 298.358C628.904 298.358 628.412 298.25 627.988 298.034C627.564 297.81 627.232 297.498 626.992 297.098C626.76 296.69 626.644 296.222 626.644 295.694V292.394C626.644 291.874 626.76 291.414 626.992 291.014C627.232 290.614 627.564 290.306 627.988 290.09C628.412 289.866 628.904 289.754 629.464 289.754C630.024 289.754 630.516 289.862 630.94 290.078C631.364 290.294 631.692 290.598 631.924 290.99C632.164 291.382 632.284 291.834 632.284 292.346C632.284 292.386 632.272 292.418 632.248 292.442C632.224 292.466 632.196 292.478 632.164 292.478L631.552 292.514C631.472 292.514 631.432 292.478 631.432 292.406V292.37C631.432 291.802 631.252 291.35 630.892 291.014C630.532 290.67 630.056 290.498 629.464 290.498C628.872 290.498 628.396 290.67 628.036 291.014C627.676 291.358 627.496 291.81 627.496 292.37V295.73C627.496 296.29 627.676 296.742 628.036 297.086C628.396 297.43 628.872 297.602 629.464 297.602C630.056 297.602 630.532 297.434 630.892 297.098C631.252 296.754 631.432 296.298 631.432 295.73V295.706C631.432 295.634 631.472 295.598 631.552 295.598L632.164 295.634C632.244 295.634 632.284 295.67 632.284 295.742C632.284 296.262 632.164 296.722 631.924 297.122C631.692 297.514 631.364 297.818 630.94 298.034C630.516 298.25 630.024 298.358 629.464 298.358ZM636.333 298.346C635.757 298.346 635.261 298.198 634.845 297.902C634.429 297.606 634.141 297.198 633.981 296.678C633.869 296.31 633.813 295.818 633.813 295.202C633.813 294.586 633.869 294.098 633.981 293.738C634.133 293.226 634.417 292.822 634.833 292.526C635.249 292.23 635.753 292.082 636.345 292.082C636.913 292.082 637.401 292.23 637.809 292.526C638.225 292.822 638.509 293.222 638.661 293.726C638.773 294.07 638.829 294.562 638.829 295.202C638.829 295.85 638.773 296.342 638.661 296.678C638.509 297.198 638.225 297.606 637.809 297.902C637.401 298.198 636.909 298.346 636.333 298.346ZM636.333 297.602C636.717 297.602 637.045 297.498 637.317 297.29C637.589 297.074 637.773 296.786 637.869 296.426C637.941 296.138 637.977 295.734 637.977 295.214C637.977 294.686 637.945 294.282 637.881 294.002C637.785 293.642 637.597 293.358 637.317 293.15C637.045 292.934 636.713 292.826 636.321 292.826C635.929 292.826 635.597 292.934 635.325 293.15C635.053 293.358 634.869 293.642 634.773 294.002C634.709 294.282 634.677 294.686 634.677 295.214C634.677 295.742 634.709 296.146 634.773 296.426C634.861 296.786 635.041 297.074 635.313 297.29C635.593 297.498 635.933 297.602 636.333 297.602ZM643.076 292.094C643.716 292.094 644.224 292.282 644.6 292.658C644.984 293.034 645.176 293.538 645.176 294.17V298.13C645.176 298.21 645.136 298.25 645.056 298.25H644.444C644.364 298.25 644.324 298.21 644.324 298.13V294.338C644.324 293.898 644.188 293.538 643.916 293.258C643.652 292.978 643.308 292.838 642.884 292.838C642.444 292.838 642.088 292.974 641.816 293.246C641.544 293.518 641.408 293.874 641.408 294.314V298.13C641.408 298.21 641.368 298.25 641.288 298.25H640.676C640.596 298.25 640.556 298.21 640.556 298.13V292.298C640.556 292.218 640.596 292.178 640.676 292.178H641.288C641.368 292.178 641.408 292.218 641.408 292.298V292.814C641.408 292.83 641.412 292.842 641.42 292.85C641.436 292.858 641.448 292.854 641.456 292.838C641.808 292.342 642.348 292.094 643.076 292.094ZM649.425 290.594C648.985 290.594 648.685 290.694 648.525 290.894C648.365 291.086 648.285 291.418 648.285 291.89V292.13C648.285 292.162 648.301 292.178 648.333 292.178H649.677C649.757 292.178 649.797 292.218 649.797 292.298V292.838C649.797 292.918 649.757 292.958 649.677 292.958H648.333C648.301 292.958 648.285 292.974 648.285 293.006V298.13C648.285 298.21 648.245 298.25 648.165 298.25H647.565C647.485 298.25 647.445 298.21 647.445 298.13V293.006C647.445 292.974 647.429 292.958 647.397 292.958H646.593C646.513 292.958 646.473 292.918 646.473 292.838V292.298C646.473 292.218 646.513 292.178 646.593 292.178H647.397C647.429 292.178 647.445 292.162 647.445 292.13V291.842C647.445 291.346 647.501 290.958 647.613 290.678C647.725 290.39 647.917 290.182 648.189 290.054C648.469 289.918 648.857 289.85 649.353 289.85H649.701C649.781 289.85 649.821 289.89 649.821 289.97V290.474C649.821 290.554 649.781 290.594 649.701 290.594H649.425ZM651.873 291.074C651.681 291.074 651.521 291.01 651.393 290.882C651.265 290.754 651.201 290.594 651.201 290.402C651.201 290.202 651.265 290.042 651.393 289.922C651.521 289.794 651.681 289.73 651.873 289.73C652.065 289.73 652.225 289.794 652.353 289.922C652.481 290.042 652.545 290.202 652.545 290.402C652.545 290.594 652.481 290.754 652.353 290.882C652.225 291.01 652.065 291.074 651.873 291.074ZM651.537 298.238C651.457 298.238 651.417 298.198 651.417 298.118V292.286C651.417 292.206 651.457 292.166 651.537 292.166H652.149C652.229 292.166 652.269 292.206 652.269 292.286V298.118C652.269 298.198 652.229 298.238 652.149 298.238H651.537ZM656.821 292.118C657.085 292.118 657.313 292.17 657.505 292.274C657.569 292.306 657.593 292.358 657.577 292.43L657.445 293.018C657.421 293.098 657.369 293.122 657.289 293.09C657.153 293.034 656.997 293.006 656.821 293.006L656.665 293.018C656.249 293.034 655.905 293.19 655.633 293.486C655.361 293.774 655.225 294.142 655.225 294.59V298.13C655.225 298.21 655.185 298.25 655.105 298.25H654.493C654.413 298.25 654.373 298.21 654.373 298.13V292.298C654.373 292.218 654.413 292.178 654.493 292.178H655.105C655.185 292.178 655.225 292.218 655.225 292.298V293.03C655.225 293.054 655.229 293.07 655.237 293.078C655.253 293.078 655.265 293.07 655.273 293.054C655.441 292.758 655.653 292.53 655.909 292.37C656.173 292.202 656.477 292.118 656.821 292.118ZM664.888 292.094C665.488 292.094 665.96 292.274 666.304 292.634C666.656 292.994 666.832 293.486 666.832 294.11V298.13C666.832 298.21 666.792 298.25 666.712 298.25H666.112C666.032 298.25 665.992 298.21 665.992 298.13V294.278C665.992 293.838 665.864 293.49 665.608 293.234C665.36 292.97 665.032 292.838 664.624 292.838C664.2 292.838 663.856 292.966 663.592 293.222C663.336 293.478 663.208 293.822 663.208 294.254V298.13C663.208 298.21 663.168 298.25 663.088 298.25H662.476C662.396 298.25 662.356 298.21 662.356 298.13V294.278C662.356 293.838 662.232 293.49 661.984 293.234C661.736 292.97 661.404 292.838 660.988 292.838C660.564 292.838 660.224 292.966 659.968 293.222C659.72 293.478 659.596 293.822 659.596 294.254V298.13C659.596 298.21 659.556 298.25 659.476 298.25H658.864C658.784 298.25 658.744 298.21 658.744 298.13V292.298C658.744 292.218 658.784 292.178 658.864 292.178H659.476C659.556 292.178 659.596 292.218 659.596 292.298V292.778C659.596 292.794 659.6 292.806 659.608 292.814C659.624 292.814 659.64 292.806 659.656 292.79C659.832 292.558 660.056 292.386 660.328 292.274C660.608 292.154 660.916 292.094 661.252 292.094C661.668 292.094 662.024 292.178 662.32 292.346C662.616 292.514 662.84 292.758 662.992 293.078C663.008 293.118 663.028 293.118 663.052 293.078C663.228 292.75 663.476 292.506 663.796 292.346C664.116 292.178 664.48 292.094 664.888 292.094ZM674.432 289.838C675.136 289.838 675.7 290.054 676.124 290.486C676.556 290.918 676.772 291.486 676.772 292.19C676.772 292.886 676.552 293.446 676.112 293.87C675.68 294.294 675.108 294.506 674.396 294.506H672.056C672.024 294.506 672.008 294.522 672.008 294.554V298.13C672.008 298.21 671.968 298.25 671.888 298.25H671.276C671.196 298.25 671.156 298.21 671.156 298.13V289.958C671.156 289.878 671.196 289.838 671.276 289.838H674.432ZM674.336 293.798C674.808 293.798 675.192 293.654 675.488 293.366C675.784 293.07 675.932 292.682 675.932 292.202C675.932 291.714 675.784 291.322 675.488 291.026C675.192 290.73 674.808 290.582 674.336 290.582H672.056C672.024 290.582 672.008 290.598 672.008 290.63V293.75C672.008 293.782 672.024 293.798 672.056 293.798H674.336ZM680.238 292.082C680.958 292.082 681.514 292.266 681.906 292.634C682.298 293.002 682.494 293.49 682.494 294.098V298.13C682.494 298.21 682.454 298.25 682.374 298.25H681.762C681.682 298.25 681.642 298.21 681.642 298.13V297.638C681.642 297.622 681.634 297.61 681.618 297.602C681.61 297.594 681.598 297.598 681.582 297.614C681.382 297.854 681.122 298.038 680.802 298.166C680.482 298.286 680.126 298.346 679.734 298.346C679.166 298.346 678.69 298.202 678.306 297.914C677.922 297.626 677.73 297.186 677.73 296.594C677.73 295.994 677.946 295.522 678.378 295.178C678.818 294.826 679.426 294.65 680.202 294.65H681.594C681.626 294.65 681.642 294.634 681.642 294.602V294.146C681.642 293.738 681.526 293.418 681.294 293.186C681.07 292.946 680.718 292.826 680.238 292.826C679.854 292.826 679.542 292.902 679.302 293.054C679.062 293.198 678.914 293.402 678.858 293.666C678.834 293.746 678.786 293.782 678.714 293.774L678.066 293.69C677.978 293.674 677.942 293.642 677.958 293.594C678.022 293.146 678.262 292.782 678.678 292.502C679.094 292.222 679.614 292.082 680.238 292.082ZM679.902 297.614C680.374 297.614 680.782 297.498 681.126 297.266C681.47 297.026 681.642 296.706 681.642 296.306V295.37C681.642 295.338 681.626 295.322 681.594 295.322H680.334C679.806 295.322 679.382 295.43 679.062 295.646C678.742 295.862 678.582 296.162 678.582 296.546C678.582 296.898 678.702 297.166 678.942 297.35C679.19 297.526 679.51 297.614 679.902 297.614ZM686.259 298.31C685.811 298.31 685.411 298.238 685.059 298.094C684.715 297.95 684.447 297.758 684.255 297.518C684.071 297.278 683.979 297.01 683.979 296.714V296.57C683.979 296.49 684.019 296.45 684.099 296.45H684.675C684.755 296.45 684.795 296.49 684.795 296.57V296.666C684.795 296.93 684.931 297.162 685.203 297.362C685.483 297.554 685.831 297.65 686.247 297.65C686.663 297.65 686.999 297.558 687.255 297.374C687.511 297.182 687.639 296.942 687.639 296.654C687.639 296.454 687.571 296.29 687.435 296.162C687.307 296.034 687.151 295.934 686.967 295.862C686.791 295.79 686.515 295.698 686.139 295.586C685.691 295.458 685.323 295.33 685.035 295.202C684.747 295.074 684.503 294.898 684.303 294.674C684.111 294.442 684.015 294.15 684.015 293.798C684.015 293.286 684.215 292.878 684.615 292.574C685.015 292.27 685.543 292.118 686.199 292.118C686.639 292.118 687.027 292.19 687.363 292.334C687.707 292.478 687.971 292.678 688.155 292.934C688.339 293.182 688.431 293.462 688.431 293.774V293.81C688.431 293.89 688.391 293.93 688.311 293.93H687.747C687.667 293.93 687.627 293.89 687.627 293.81V293.774C687.627 293.502 687.495 293.274 687.231 293.09C686.975 292.906 686.627 292.814 686.187 292.814C685.779 292.814 685.451 292.898 685.203 293.066C684.955 293.226 684.831 293.45 684.831 293.738C684.831 294.01 684.951 294.218 685.191 294.362C685.431 294.506 685.803 294.65 686.307 294.794C686.771 294.93 687.147 295.058 687.435 295.178C687.723 295.298 687.971 295.474 688.179 295.706C688.387 295.93 688.491 296.226 688.491 296.594C688.491 297.114 688.287 297.53 687.879 297.842C687.471 298.154 686.931 298.31 686.259 298.31ZM691.861 298.31C691.413 298.31 691.013 298.238 690.661 298.094C690.317 297.95 690.049 297.758 689.857 297.518C689.673 297.278 689.581 297.01 689.581 296.714V296.57C689.581 296.49 689.621 296.45 689.701 296.45H690.277C690.357 296.45 690.397 296.49 690.397 296.57V296.666C690.397 296.93 690.533 297.162 690.805 297.362C691.085 297.554 691.433 297.65 691.849 297.65C692.265 297.65 692.601 297.558 692.857 297.374C693.113 297.182 693.241 296.942 693.241 296.654C693.241 296.454 693.173 296.29 693.037 296.162C692.909 296.034 692.753 295.934 692.569 295.862C692.393 295.79 692.117 295.698 691.741 295.586C691.293 295.458 690.925 295.33 690.637 295.202C690.349 295.074 690.105 294.898 689.905 294.674C689.713 294.442 689.617 294.15 689.617 293.798C689.617 293.286 689.817 292.878 690.217 292.574C690.617 292.27 691.145 292.118 691.801 292.118C692.241 292.118 692.629 292.19 692.965 292.334C693.309 292.478 693.573 292.678 693.757 292.934C693.941 293.182 694.033 293.462 694.033 293.774V293.81C694.033 293.89 693.993 293.93 693.913 293.93H693.349C693.269 293.93 693.229 293.89 693.229 293.81V293.774C693.229 293.502 693.097 293.274 692.833 293.09C692.577 292.906 692.229 292.814 691.789 292.814C691.381 292.814 691.053 292.898 690.805 293.066C690.557 293.226 690.433 293.45 690.433 293.738C690.433 294.01 690.553 294.218 690.793 294.362C691.033 294.506 691.405 294.65 691.909 294.794C692.373 294.93 692.749 295.058 693.037 295.178C693.325 295.298 693.573 295.474 693.781 295.706C693.989 295.93 694.093 296.226 694.093 296.594C694.093 297.114 693.889 297.53 693.481 297.842C693.073 298.154 692.533 298.31 691.861 298.31ZM696.531 298.25C696.467 298.25 696.423 298.218 696.399 298.154L694.695 292.31L694.683 292.274C694.683 292.21 694.723 292.178 694.803 292.178H695.427C695.499 292.178 695.543 292.214 695.559 292.286L696.831 297.014C696.839 297.03 696.847 297.038 696.855 297.038C696.871 297.038 696.883 297.03 696.891 297.014L698.187 292.286C698.203 292.214 698.247 292.178 698.319 292.178H698.895C698.967 292.178 699.011 292.21 699.027 292.274L700.335 297.002C700.343 297.018 700.355 297.026 700.371 297.026C700.387 297.026 700.399 297.018 700.407 297.002L701.715 292.286C701.731 292.214 701.775 292.178 701.847 292.178L702.471 292.19C702.511 292.19 702.539 292.202 702.555 292.226C702.579 292.25 702.587 292.282 702.579 292.322L700.851 298.154C700.827 298.218 700.783 298.25 700.719 298.25H700.083C700.019 298.25 699.975 298.218 699.951 298.154L698.643 293.666C698.635 293.65 698.623 293.642 698.607 293.642C698.599 293.642 698.591 293.65 698.583 293.666L697.311 298.154C697.287 298.218 697.243 298.25 697.179 298.25H696.531ZM706.036 298.346C705.46 298.346 704.964 298.198 704.548 297.902C704.132 297.606 703.844 297.198 703.684 296.678C703.572 296.31 703.516 295.818 703.516 295.202C703.516 294.586 703.572 294.098 703.684 293.738C703.836 293.226 704.12 292.822 704.536 292.526C704.952 292.23 705.456 292.082 706.048 292.082C706.616 292.082 707.104 292.23 707.512 292.526C707.928 292.822 708.212 293.222 708.364 293.726C708.476 294.07 708.532 294.562 708.532 295.202C708.532 295.85 708.476 296.342 708.364 296.678C708.212 297.198 707.928 297.606 707.512 297.902C707.104 298.198 706.612 298.346 706.036 298.346ZM706.036 297.602C706.42 297.602 706.748 297.498 707.02 297.29C707.292 297.074 707.476 296.786 707.572 296.426C707.644 296.138 707.68 295.734 707.68 295.214C707.68 294.686 707.648 294.282 707.584 294.002C707.488 293.642 707.3 293.358 707.02 293.15C706.748 292.934 706.416 292.826 706.024 292.826C705.632 292.826 705.3 292.934 705.028 293.15C704.756 293.358 704.572 293.642 704.476 294.002C704.412 294.282 704.38 294.686 704.38 295.214C704.38 295.742 704.412 296.146 704.476 296.426C704.564 296.786 704.744 297.074 705.016 297.29C705.296 297.498 705.636 297.602 706.036 297.602ZM712.708 292.118C712.972 292.118 713.2 292.17 713.392 292.274C713.456 292.306 713.48 292.358 713.464 292.43L713.332 293.018C713.308 293.098 713.256 293.122 713.176 293.09C713.04 293.034 712.884 293.006 712.708 293.006L712.552 293.018C712.136 293.034 711.792 293.19 711.52 293.486C711.248 293.774 711.112 294.142 711.112 294.59V298.13C711.112 298.21 711.072 298.25 710.992 298.25H710.38C710.3 298.25 710.26 298.21 710.26 298.13V292.298C710.26 292.218 710.3 292.178 710.38 292.178H710.992C711.072 292.178 711.112 292.218 711.112 292.298V293.03C711.112 293.054 711.116 293.07 711.124 293.078C711.14 293.078 711.152 293.07 711.16 293.054C711.328 292.758 711.54 292.53 711.796 292.37C712.06 292.202 712.364 292.118 712.708 292.118ZM718.34 289.97C718.34 289.89 718.38 289.85 718.46 289.85H719.072C719.152 289.85 719.192 289.89 719.192 289.97V298.13C719.192 298.21 719.152 298.25 719.072 298.25H718.46C718.38 298.25 718.34 298.21 718.34 298.13V297.626C718.34 297.61 718.332 297.602 718.316 297.602C718.308 297.594 718.296 297.598 718.28 297.614C718.104 297.846 717.884 298.026 717.62 298.154C717.364 298.282 717.076 298.346 716.756 298.346C716.196 298.346 715.724 298.202 715.34 297.914C714.964 297.626 714.704 297.234 714.56 296.738C714.448 296.378 714.392 295.87 714.392 295.214C714.392 294.55 714.44 294.054 714.536 293.726C714.68 293.214 714.944 292.814 715.328 292.526C715.712 292.23 716.188 292.082 716.756 292.082C717.068 292.082 717.356 292.146 717.62 292.274C717.884 292.394 718.104 292.57 718.28 292.802C718.296 292.818 718.308 292.826 718.316 292.826C718.332 292.818 718.34 292.806 718.34 292.79V289.97ZM718.124 296.678C718.196 296.518 718.248 296.33 718.28 296.114C718.312 295.898 718.328 295.598 718.328 295.214C718.328 294.83 718.312 294.53 718.28 294.314C718.248 294.09 718.192 293.894 718.112 293.726C718.016 293.454 717.856 293.238 717.632 293.078C717.416 292.91 717.156 292.826 716.852 292.826C716.532 292.826 716.256 292.906 716.024 293.066C715.792 293.226 715.624 293.438 715.52 293.702C715.424 293.878 715.352 294.078 715.304 294.302C715.264 294.518 715.244 294.822 715.244 295.214C715.244 295.59 715.26 295.886 715.292 296.102C715.324 296.31 715.38 296.498 715.46 296.666C715.556 296.954 715.724 297.182 715.964 297.35C716.212 297.518 716.504 297.602 716.84 297.602C717.16 297.602 717.428 297.518 717.644 297.35C717.86 297.182 718.02 296.958 718.124 296.678Z" fill="#002346"/>
<path d="M687.962 330.346C687.058 330.346 686.342 330.142 685.814 329.734C685.294 329.326 685.034 328.782 685.034 328.102V327.73C685.034 327.65 685.074 327.61 685.154 327.61H685.742C685.822 327.61 685.862 327.65 685.862 327.73V328.054C685.862 328.518 686.054 328.894 686.438 329.182C686.822 329.462 687.354 329.602 688.034 329.602C688.65 329.602 689.118 329.474 689.438 329.218C689.758 328.954 689.918 328.606 689.918 328.174C689.918 327.894 689.842 327.654 689.69 327.454C689.546 327.254 689.318 327.066 689.006 326.89C688.702 326.714 688.27 326.51 687.71 326.278C687.11 326.038 686.642 325.83 686.306 325.654C685.978 325.47 685.71 325.238 685.502 324.958C685.302 324.67 685.202 324.31 685.202 323.878C685.202 323.206 685.434 322.686 685.898 322.318C686.37 321.942 687.014 321.754 687.83 321.754C688.718 321.754 689.418 321.962 689.93 322.378C690.442 322.794 690.698 323.346 690.698 324.034V324.298C690.698 324.378 690.658 324.418 690.578 324.418H689.978C689.898 324.418 689.858 324.378 689.858 324.298V324.082C689.858 323.618 689.674 323.238 689.306 322.942C688.946 322.646 688.442 322.498 687.794 322.498C687.226 322.498 686.79 322.614 686.486 322.846C686.182 323.078 686.03 323.414 686.03 323.854C686.03 324.142 686.102 324.382 686.246 324.574C686.398 324.758 686.61 324.922 686.882 325.066C687.162 325.202 687.59 325.382 688.166 325.606C688.75 325.846 689.218 326.07 689.57 326.278C689.93 326.486 690.218 326.742 690.434 327.046C690.658 327.342 690.77 327.706 690.77 328.138C690.77 328.81 690.522 329.346 690.026 329.746C689.53 330.146 688.842 330.346 687.962 330.346ZM692.954 323.074C692.762 323.074 692.602 323.01 692.474 322.882C692.346 322.754 692.282 322.594 692.282 322.402C692.282 322.202 692.346 322.042 692.474 321.922C692.602 321.794 692.762 321.73 692.954 321.73C693.146 321.73 693.306 321.794 693.434 321.922C693.562 322.042 693.626 322.202 693.626 322.402C693.626 322.594 693.562 322.754 693.434 322.882C693.306 323.01 693.146 323.074 692.954 323.074ZM692.618 330.238C692.538 330.238 692.498 330.198 692.498 330.118V324.286C692.498 324.206 692.538 324.166 692.618 324.166H693.23C693.31 324.166 693.35 324.206 693.35 324.286V330.118C693.35 330.198 693.31 330.238 693.23 330.238H692.618ZM699.181 324.298C699.181 324.218 699.221 324.178 699.301 324.178H699.913C699.993 324.178 700.033 324.218 700.033 324.298V330.046C700.033 330.942 699.773 331.598 699.253 332.014C698.741 332.43 698.033 332.638 697.129 332.638C696.945 332.638 696.805 332.634 696.709 332.626C696.629 332.618 696.589 332.574 696.589 332.494L696.613 331.942C696.613 331.902 696.625 331.87 696.649 331.846C696.673 331.83 696.701 331.826 696.733 331.834L697.057 331.846C697.801 331.846 698.341 331.698 698.677 331.402C699.013 331.114 699.181 330.654 699.181 330.022V329.578C699.181 329.562 699.173 329.554 699.157 329.554C699.149 329.546 699.137 329.55 699.121 329.566C698.753 330.046 698.229 330.286 697.549 330.286C697.029 330.286 696.565 330.146 696.157 329.866C695.757 329.586 695.489 329.19 695.353 328.678C695.257 328.35 695.209 327.862 695.209 327.214C695.209 326.862 695.217 326.566 695.233 326.326C695.257 326.086 695.301 325.87 695.365 325.678C695.509 325.198 695.769 324.814 696.145 324.526C696.521 324.23 696.973 324.082 697.501 324.082C698.213 324.082 698.753 324.318 699.121 324.79C699.137 324.806 699.149 324.81 699.157 324.802C699.173 324.794 699.181 324.782 699.181 324.766V324.298ZM699.121 328.414C699.145 328.294 699.161 328.146 699.169 327.97C699.177 327.794 699.181 327.538 699.181 327.202C699.181 326.794 699.177 326.522 699.169 326.386C699.161 326.242 699.141 326.11 699.109 325.99C699.045 325.654 698.885 325.378 698.629 325.162C698.381 324.938 698.065 324.826 697.681 324.826C697.305 324.826 696.985 324.934 696.721 325.15C696.465 325.366 696.285 325.646 696.181 325.99C696.101 326.246 696.061 326.646 696.061 327.19C696.061 327.774 696.101 328.178 696.181 328.402C696.261 328.738 696.433 329.018 696.697 329.242C696.969 329.458 697.297 329.566 697.681 329.566C698.073 329.566 698.393 329.458 698.641 329.242C698.897 329.026 699.057 328.75 699.121 328.414ZM704.378 324.094C705.018 324.094 705.526 324.282 705.902 324.658C706.286 325.034 706.478 325.538 706.478 326.17V330.13C706.478 330.21 706.438 330.25 706.358 330.25H705.746C705.666 330.25 705.626 330.21 705.626 330.13V326.338C705.626 325.898 705.49 325.538 705.218 325.258C704.954 324.978 704.61 324.838 704.186 324.838C703.746 324.838 703.39 324.974 703.118 325.246C702.846 325.518 702.71 325.874 702.71 326.314V330.13C702.71 330.21 702.67 330.25 702.59 330.25H701.978C701.898 330.25 701.858 330.21 701.858 330.13V324.298C701.858 324.218 701.898 324.178 701.978 324.178H702.59C702.67 324.178 702.71 324.218 702.71 324.298V324.814C702.71 324.83 702.714 324.842 702.722 324.85C702.738 324.858 702.75 324.854 702.758 324.838C703.11 324.342 703.65 324.094 704.378 324.094ZM711.999 324.298C711.999 324.218 712.039 324.178 712.119 324.178H712.731C712.811 324.178 712.851 324.218 712.851 324.298V330.13C712.851 330.21 712.811 330.25 712.731 330.25H712.119C712.039 330.25 711.999 330.21 711.999 330.13V329.614C711.999 329.598 711.991 329.586 711.975 329.578C711.959 329.57 711.947 329.574 711.939 329.59C711.603 330.086 711.071 330.334 710.343 330.334C709.959 330.334 709.603 330.258 709.275 330.106C708.955 329.946 708.699 329.718 708.507 329.422C708.323 329.126 708.231 328.77 708.231 328.354V324.298C708.231 324.218 708.271 324.178 708.351 324.178H708.963C709.043 324.178 709.083 324.218 709.083 324.298V328.102C709.083 328.558 709.211 328.922 709.467 329.194C709.723 329.458 710.071 329.59 710.511 329.59C710.967 329.59 711.327 329.454 711.591 329.182C711.863 328.91 711.999 328.55 711.999 328.102V324.298ZM719.477 325.69C719.597 326.074 719.657 326.582 719.657 327.214C719.657 327.854 719.605 328.35 719.501 328.702C719.357 329.214 719.093 329.618 718.709 329.914C718.333 330.202 717.857 330.346 717.281 330.346C716.969 330.346 716.681 330.286 716.417 330.166C716.153 330.038 715.933 329.858 715.757 329.626C715.741 329.61 715.725 329.606 715.709 329.614C715.701 329.614 715.697 329.622 715.697 329.638V332.458C715.697 332.538 715.657 332.578 715.577 332.578H714.965C714.885 332.578 714.845 332.538 714.845 332.458V324.298C714.845 324.218 714.885 324.178 714.965 324.178H715.577C715.657 324.178 715.697 324.218 715.697 324.298V324.802C715.697 324.818 715.701 324.83 715.709 324.838C715.725 324.838 715.741 324.83 715.757 324.814C715.933 324.582 716.149 324.402 716.405 324.274C716.669 324.146 716.961 324.082 717.281 324.082C717.841 324.082 718.309 324.226 718.685 324.514C719.069 324.802 719.333 325.194 719.477 325.69ZM718.529 328.726C718.617 328.55 718.681 328.354 718.721 328.138C718.769 327.914 718.793 327.606 718.793 327.214C718.793 326.838 718.777 326.546 718.745 326.338C718.713 326.122 718.657 325.93 718.577 325.762C718.481 325.474 718.309 325.246 718.061 325.078C717.821 324.91 717.533 324.826 717.197 324.826C716.877 324.826 716.609 324.91 716.393 325.078C716.177 325.246 716.017 325.47 715.913 325.75C715.841 325.91 715.789 326.098 715.757 326.314C715.725 326.53 715.709 326.83 715.709 327.214C715.709 327.598 715.725 327.902 715.757 328.126C715.789 328.342 715.845 328.534 715.925 328.702C716.021 328.974 716.177 329.194 716.393 329.362C716.617 329.522 716.881 329.602 717.185 329.602C717.505 329.602 717.781 329.522 718.013 329.362C718.253 329.202 718.425 328.99 718.529 328.726Z" fill="#002346"/>
<path d="M670.38 592.44L677.13 598C678.81 599.38 679.41 601.71 678.57 603.72C675.57 610.94 666.23 627.47 641.48 636.06L641.32 622.3L670.37 592.44H670.38Z" fill="white" stroke="#002346" stroke-miterlimit="10"/>
<path d="M338.48 578.82L322.09 635.83H334.2L360.57 578.82H338.48Z" fill="#E6E7E8" stroke="#002346" stroke-miterlimit="10"/>
<path d="M512.35 574.551L521.62 631.561H509.5L490.26 574.551H512.35Z" fill="#E6E7E8" stroke="#002346" stroke-miterlimit="10"/>
<path d="M247.98 572.41L231.59 629.42H243.7L270.07 572.41H247.98Z" fill="#E6E7E8" stroke="#002346" stroke-miterlimit="10"/>
<path d="M619.95 590.23C619.95 590.23 622.09 588.09 627.79 590.94L639.45 595.02C641.11 595.6 642.9 595.66 644.59 595.18C649.65 593.75 661.08 590.84 668.06 591.52C670.84 591.79 672.66 594.57 671.78 597.22C669.85 603.03 663.82 614.04 645.01 624.41L611.41 615.17L607.85 610.89C607.85 610.89 605 603.76 608.56 600.91L619.96 590.22L619.95 590.23Z" fill="#3774A9" stroke="#002346" stroke-miterlimit="10"/>
<path d="M613.01 608.32C618.43 605.88 626.8 602.9 631.36 605.19C631.36 605.19 621.38 605.9 605.71 618.02C605.71 618.02 592.17 629.42 571.51 629.42C571.51 629.42 551.56 630.85 547.28 639.4L547.99 620.87L560.81 617.42C564.58 616.41 568.12 614.68 571.24 612.34L575.07 609.47L578.84 604.63C579.54 603.73 580.79 603.49 581.77 604.07L595.74 612.32C595.74 612.32 601.99 615.16 606.37 612.22C608.51 610.78 610.67 609.39 613.02 608.33L613.01 608.32Z" fill="#3774A9" stroke="#002346" stroke-miterlimit="10"/>
<path d="M559.84 586.86L575.06 609.46C575.06 609.46 572.92 627.99 547.98 620.86L538.72 601.62L559.84 586.86Z" fill="#F1B2C0" stroke="#002346" stroke-miterlimit="10"/>
<path d="M570.84 460.86L563.66 585.23H523.04L323.6 581.47L247.13 580.03C231.5 579.74 218.27 568.38 215.61 552.97L177.81 333.48C175.09 317.66 185.98 302.92 201.55 300.6C202.35 300.47 203.16 300.39 203.99 300.34L285.4 295.19L396.02 295.75C415.92 295.85 432.9 310.18 436.34 329.78L449.64 405.66L555.21 414.14C565.54 414.97 573.29 423.94 572.6 434.28L570.84 460.85V460.86Z" fill="#E6E7E8" stroke="#002346" stroke-miterlimit="10"/>
<path d="M523.1 427.2L569.36 563.86L523.75 590.23L463.95 434.22L523.1 427.2Z" fill="#C2E0F2" stroke="#002346" stroke-miterlimit="10"/>
<path d="M535.87 425.62L445.37 436.31L371.97 427.04L372.68 422.77L442.52 432.03L482.42 347.94L575.77 341.53L535.87 425.62Z" fill="white" stroke="#002346" stroke-miterlimit="10"/>
<path d="M372.78 422.741L425.42 408.511L446.09 413.501L450.37 415.641L442.53 432.031L372.79 422.781C372.79 422.781 372.77 422.751 372.79 422.741H372.78Z" fill="#E6E7E8" stroke="#002346" stroke-miterlimit="10"/>
<path d="M539.84 575.86L520.19 590.94L530.88 610.18L550.23 595.44L539.84 575.86Z" fill="white" stroke="#002346" stroke-miterlimit="10"/>
<path d="M572.21 600.2L577.2 606.61L578.81 604.29C579.54 603.56 580.67 603.42 581.56 603.94L595.73 612.31C595.73 612.31 602.86 615.87 607.84 610.88C607.84 610.88 604.99 605.18 608.55 600.9L619.95 590.21L601.31 577.61L572.21 600.19V600.2Z" fill="#F1B2C0" stroke="#002346" stroke-miterlimit="10"/>
<path d="M547.27 639.4C547.27 639.4 546.45 645.57 549 648.9L638.49 625.86L643.57 630.2C643.57 630.2 652.03 607.34 631.36 605.2C631.36 605.2 621.38 605.91 605.71 618.03C605.71 618.03 590.75 630.14 571.51 629.43C571.51 629.43 552.27 630.14 547.28 639.41L547.27 639.4Z" fill="#002346" stroke="#002346" stroke-miterlimit="10"/>
<path d="M250.12 415.64C250.12 415.64 294.3 416.35 304.28 479.06L323.61 581.48L247.14 580.04C231.51 579.75 218.28 568.39 215.62 552.98L177.26 333.76C174.37 317.23 186.39 301.81 203.13 300.6L225.2 299L250.13 415.64H250.12Z" fill="white" stroke="#002346" stroke-miterlimit="10"/>
<path d="M376.25 423.241L403.41 426.731C403.41 426.731 409.75 427.041 411.88 423.481L418.29 424.191C418.29 424.191 423.28 425.621 423.99 421.341L429.92 425.651C431.71 426.951 434.18 427.101 435.98 425.821C436.71 425.301 437.31 424.551 437.53 423.481C437.53 423.481 443.23 425.621 445.37 422.771L446.89 423.061L450.36 415.641L446.08 412.081H446.79C446.79 412.081 451.78 412.791 451.07 408.521L433.97 400.681C433.97 400.681 428.57 396.421 418.08 401.041C418.08 401.041 407.71 405.201 396.61 405.081L380.52 404.241C380.52 404.241 375.53 413.031 376.24 423.241H376.25Z" fill="#F1B2C0" stroke="#002346" stroke-miterlimit="10"/>
<path d="M450.36 415.641L457.49 401.391L433.97 382.151C433.97 382.151 435.5 371.971 431.24 365.381C429.28 362.351 427.92 358.981 427.52 355.401L423.28 316.601C423.28 316.601 420.43 296.651 401.19 286.671L380.29 272.031L359.14 275.981L339.19 266.721L311.4 278.121C311.4 278.121 284.32 288.101 273.63 311.611C273.63 311.611 262.94 332.281 270.07 367.911C270.07 367.911 272.92 380.021 268.64 392.141C268.64 392.141 265.79 404.971 271.49 410.671L300.71 408.531C300.71 408.531 336.34 404.251 352.02 429.911L376.96 429.201C376.96 429.201 374.11 415.661 380.52 404.261L399.05 404.971C399.05 404.971 409.03 404.261 416.86 401.411C416.86 401.411 426.84 396.421 433.96 400.701L451.06 408.541C451.06 408.541 452.31 412.321 446.07 412.101L450.35 415.661L450.36 415.641Z" fill="#3774A9" stroke="#002346" stroke-miterlimit="10"/>
<path d="M352.73 228.94C352.73 228.94 357.72 249.61 339.19 266.71L361.11 291.96C362.17 293.18 363.15 294.47 364.05 295.81L375.53 313.03C375.53 313.03 383.62 290.16 380.29 272.02L364.13 239.63L362.7 223.95L352.72 228.94H352.73Z" fill="#F1B2C0" stroke="#002346" stroke-miterlimit="10"/>
<path d="M408.89 219.317C411.031 207.261 402.993 195.753 390.938 193.612C378.882 191.471 367.374 199.508 365.233 211.564L360.606 237.616C358.465 249.672 366.503 261.18 378.558 263.321C390.614 265.462 402.122 257.425 404.263 245.369L408.89 219.317Z" fill="#F1B2C0" stroke="#002346" stroke-miterlimit="10"/>
<path d="M352.84 242.86V228.86L353.44 211.83C353.44 211.83 350.59 194.02 364.84 188.31C364.84 188.31 391.92 164.08 406.17 185.46C406.17 185.46 415.15 182.82 419.92 188.45C421.33 190.11 422.02 192.26 422.09 194.44C422.23 198.74 421.27 207.15 411.91 209.23C408.07 210.08 403.99 209.56 400.62 207.53C399.74 207 398.88 206.36 398.12 205.57C396.57 203.96 394.5 202.91 392.26 202.91C391.1 202.91 389.77 202.82 388.36 202.55C385.25 201.96 382.02 202.52 379.41 204.31L374.67 207.55C372.39 209.11 370.69 211.41 369.98 214.08C369.64 215.39 369.07 216.88 368.15 218.24C366.97 220 366.26 222.02 366.12 224.13C365.73 230.09 359.26 240.9 352.82 242.83L352.84 242.86Z" fill="#002346" stroke="#002346" stroke-miterlimit="10"/>
<path d="M364.8 232.591C367.307 232.591 369.34 229.878 369.34 226.531C369.34 223.184 367.307 220.471 364.8 220.471C362.293 220.471 360.26 223.184 360.26 226.531C360.26 229.878 362.293 232.591 364.8 232.591Z" fill="#F1B2C0" stroke="#002346" stroke-miterlimit="10"/>
<path d="M352.02 429.89C352.02 429.89 354.84 446.86 357.84 468.86L421.97 484.48C427.4 486.04 432.26 489.15 435.95 493.43C453.04 513.23 521.83 571.87 548.68 598.78L586.45 564.58L463.93 434.23L445.35 436.32L376.89 427.21L376.94 429.2L352 429.91L352.02 429.89Z" fill="#C2E0F2" stroke="#002346" stroke-miterlimit="10"/>
<path d="M544.42 600.201L559.84 614.861L603.56 575.261L588.6 561.011L544.42 600.201Z" fill="white" stroke="#002346" stroke-miterlimit="10"/>
<path d="M643.47 620.161C643.47 620.161 639.91 607.331 618.53 618.731C618.53 618.731 595.01 635.121 578.62 635.121C578.62 635.121 552.57 634.531 549.04 645.761C548.32 648.051 549.34 650.521 551.43 651.711C553.7 653.011 557.68 654.371 564.37 654.371C564.37 654.371 597.15 653.661 597.86 653.661C598.57 653.661 650.59 652.231 643.47 620.171V620.161Z" fill="white" stroke="#002346" stroke-miterlimit="10"/>
<path d="M385.84 210.86C394.124 210.86 400.84 207.502 400.84 203.36C400.84 199.218 394.124 195.86 385.84 195.86C377.556 195.86 370.84 199.218 370.84 203.36C370.84 207.502 377.556 210.86 385.84 210.86Z" fill="#002346" stroke="#002346" stroke-miterlimit="10"/>
<path d="M332.12 270.431L346.56 308.221L361.7 293.511" stroke="#002346" stroke-linecap="round" stroke-linejoin="round"/>
<path d="M380.88 294.15L392 305.62L386.37 276.28" stroke="#002346" stroke-linecap="round" stroke-linejoin="round"/>
<path d="M376.18 316.801V397.221" stroke="#002346" stroke-linecap="round" stroke-linejoin="round"/>
<path d="M380.52 404.241L323.49 392.021C319.42 391.151 315.23 391.011 311.11 391.621L298.34 393.511" stroke="#002346" stroke-linecap="round" stroke-linejoin="round"/>
<path d="M282.23 298.8C282.23 298.8 311.37 296.32 314.11 323.09" stroke="#002346" stroke-linecap="round" stroke-linejoin="round"/>
<path d="M314.11 330.71L311.52 388.89" stroke="#002346" stroke-linecap="round" stroke-linejoin="round"/>
<path d="M433.97 382.15L424.49 374.13" stroke="#002346" stroke-linecap="round" stroke-linejoin="round"/>
<path d="M398.71 404.32C398.71 404.32 406.59 399.5 399.46 385.43C399.46 385.43 393.84 379.28 398.59 369.82L406.75 351.78L408.82 382.14C408.82 382.14 408.74 397.47 417.04 400.91" stroke="#002346" stroke-linecap="round" stroke-linejoin="round"/>
<path d="M411.88 423.48C411.88 423.48 415.64 413.32 423.99 421.34" stroke="#002346" stroke-linecap="round" stroke-linejoin="round"/>
<path d="M437.53 423.481L425.18 412.811" stroke="#002346" stroke-linecap="round" stroke-linejoin="round"/>
<path d="M445.37 422.771L431.35 408.511" stroke="#002346" stroke-linecap="round" stroke-linejoin="round"/>
<path d="M446.08 412.08L435.84 405.86" stroke="#002346" stroke-linecap="round" stroke-linejoin="round"/>
<path d="M448.34 432.03L486.06 351.79" stroke="#002346" stroke-linecap="round" stroke-linejoin="round"/>
<path d="M259.79 407.081L332.39 404.461C341.75 404.121 349.87 410.881 351.23 420.151L369.05 541.241C370.78 552.971 380.01 562.161 391.75 563.841L420.21 567.901" fill="#E6E7E8"/>
<path d="M259.79 407.081L332.39 404.461C341.75 404.121 349.87 410.881 351.23 420.151L369.05 541.241C370.78 552.971 380.01 562.161 391.75 563.841L420.21 567.901" stroke="#002346" stroke-miterlimit="10"/>
<path d="M412.56 319.511L407.87 347.441" stroke="#002346" stroke-linecap="round" stroke-linejoin="round"/>
<path d="M246.41 570.321C246.61 572.661 246.92 575.301 247.37 577.991C247.37 577.991 256.85 546.971 288.01 550.971L281.89 537.491L276.83 532.431C266.67 537.711 256.83 536.121 250.11 549.751C246.97 556.111 245.8 563.261 246.42 570.331L246.41 570.321Z" fill="#7CD295" stroke="#002346" stroke-miterlimit="10"/>
<path d="M334.26 540.61C306.14 540.64 301.94 499.2 330.35 464.71C330.44 464.6 330.62 464.67 330.61 464.82C329.49 476.58 364.01 518.72 341.39 538.01C339.4 539.7 336.88 540.61 334.27 540.61H334.26Z" fill="#7CD295" stroke="#002346" stroke-miterlimit="10"/>
<path d="M332.56 525.13C314.82 514.6 318.82 483.03 371.39 464.4C371.49 464.37 371.59 464.46 371.55 464.55C370.95 466.26 367.47 477.43 365.64 508.95C365.15 517.35 353.15 537.35 332.56 525.12V525.13Z" fill="#7CD295" stroke="#002346" stroke-miterlimit="10"/>
<path d="M350.92 594.321C351.72 600.531 309.62 600.531 310.42 594.321C309.62 588.111 351.72 588.111 350.92 594.321Z" fill="#002346" stroke="#002346" stroke-miterlimit="10"/>
<path d="M352.58 649.32C350.76 649.05 304.4 650.11 304.29 648.46C295.16 644.13 294.77 629.99 294.77 629.99C293.39 611.12 310.42 601 310.42 601V594.33C309.62 600.54 351.72 600.54 350.92 594.33V601.46C373.21 616.09 368.69 647.84 352.58 649.32Z" fill="#3774A9" stroke="#002346" stroke-miterlimit="10"/>
<path d="M352.3 609.741C352.35 613.321 346.72 613.321 346.78 609.741C346.73 606.161 352.36 606.161 352.3 609.741Z" fill="white"/>
<path d="M360.58 618.031C360.63 621.611 355 621.611 355.06 618.031C355.01 614.451 360.64 614.451 360.58 618.031Z" fill="white"/>
<path d="M361.96 631.371C362.01 634.951 356.38 634.951 356.44 631.371C356.39 627.791 362.02 627.791 361.96 631.371Z" fill="white"/>
<path d="M354.6 641.5C354.65 645.08 349.02 645.08 349.08 641.5C349.03 637.92 354.66 637.92 354.6 641.5Z" fill="white"/>
<path d="M332.05 644.26C332.1 647.84 326.47 647.84 326.53 644.26C326.48 640.68 332.11 640.68 332.05 644.26Z" fill="white"/>
<path d="M314.56 641.5C314.61 645.08 308.98 645.08 309.04 641.5C308.99 637.92 314.62 637.92 314.56 641.5Z" fill="white"/>
<path d="M304.9 633.67C304.95 637.25 299.32 637.25 299.38 633.67C299.33 630.09 304.96 630.09 304.9 633.67Z" fill="white"/>
<path d="M306.28 618.031C306.33 621.611 300.7 621.611 300.76 618.031C300.71 614.451 306.34 614.451 306.28 618.031Z" fill="white"/>
<path d="M316.4 608.821C316.45 612.401 310.82 612.401 310.88 608.821C310.83 605.241 316.46 605.241 316.4 608.821Z" fill="white"/>
<path d="M325.61 617.111C325.66 620.691 320.03 620.691 320.09 617.111C320.04 613.531 325.67 613.531 325.61 617.111Z" fill="white"/>
<path d="M315.02 624.47C315.07 628.05 309.44 628.05 309.5 624.47C309.45 620.89 315.08 620.89 315.02 624.47Z" fill="white"/>
<path d="M324.23 633.67C324.28 637.25 318.65 637.25 318.71 633.67C318.66 630.09 324.29 630.09 324.23 633.67Z" fill="white"/>
<path d="M334.35 625.85C334.4 629.43 328.77 629.43 328.83 625.85C328.78 622.27 334.41 622.27 334.35 625.85Z" fill="white"/>
<path d="M336.19 610.201C336.24 613.781 330.61 613.781 330.67 610.201C330.62 606.621 336.25 606.621 336.19 610.201Z" fill="white"/>
<path d="M344.48 619.871C344.53 623.451 338.9 623.451 338.96 619.871C338.91 616.291 344.54 616.291 344.48 619.871Z" fill="white"/>
<path d="M350.92 626.31C350.97 629.89 345.34 629.89 345.4 626.31C345.35 622.73 350.98 622.73 350.92 626.31Z" fill="white"/>
<path d="M341.71 635.51C341.76 639.09 336.13 639.09 336.19 635.51C336.14 631.93 341.77 631.93 341.71 635.51Z" fill="white"/>
<path d="M375.77 563.261C360.59 550.901 339.01 567.871 360.58 589.031C360.58 589.031 371.63 599.151 376.23 609.741C376.23 609.741 397.4 594.551 397.86 573.841C397.86 573.841 397.86 552.671 375.77 563.251V563.261Z" fill="#7CD295" stroke="#002346" stroke-miterlimit="10"/>
<path d="M246.93 560.69C270.78 518.65 280.96 561.88 316.86 555.89C317.4 507.56 247.46 509.59 246.93 560.69Z" fill="#7CD295" stroke="#002346" stroke-miterlimit="10"/>
<path d="M310.42 601C310.42 601 327.41 609.72 350.92 601.46" stroke="#002346" stroke-linecap="round" stroke-linejoin="round"/>
<path d="M334.93 578.691C334.93 578.691 344.93 536.691 370.38 557.061C373.96 559.921 376.2 564.141 377.29 568.591C378.98 575.491 381.12 588.051 378.43 600.191" stroke="#002346" stroke-linecap="round" stroke-linejoin="round"/>
<path d="M367.43 468.19C367.43 468.19 320.43 502.19 336.43 594.19" stroke="#002346" stroke-linecap="round" stroke-linejoin="round"/>
<path d="M265.43 533.19C265.43 533.19 327.43 532.19 329.43 593.19" stroke="#002346" stroke-linecap="round" stroke-linejoin="round"/>
</svg>
